<?xml version="1.0" encoding="utf-8"?>
<!-- Generator: Adobe Illustrator 20.0.0, SVG Export Plug-In . SVG Version: 6.00 Build 0)  -->
<svg version="1.1" xmlns="http://www.w3.org/2000/svg" xmlns:xlink="http://www.w3.org/1999/xlink" x="0px" y="0px"
	 viewBox="0 0 2521.91 1968.23" style="enable-background:new 0 0 2521.91 1968.23;" xml:space="preserve">
<style type="text/css">
	.st0{display:none;}
</style>
<g id="Layer_1">
	<g id="Layer_1_1_" class="st0">
	</g>
	<g id="Layer_3">
	</g>
	<g>
		<g id="XMLID_1_">
			<g>
				<path d="M2511.66,948.74c11.23,139.6-31.7,285.51-124.15,421.96c-70.04,103.38-165.37,198.11-283.34,281.58
					c-121.98,86.3-263.03,156.79-419.25,209.52c-155.56,52.5-316.66,83.81-478.83,93.06c-156.69,8.94-307.36-3.01-447.82-35.51
					c-140.61-32.53-264.21-83.58-367.39-151.74c-106.72-70.51-186.99-156.46-238.57-255.46c-17.72-34.01-31.85-69.5-42-105.5
					l-20.44-70.3c54.55,83.66,131.09,157.15,227.79,218.67c106.89,68,234.38,119.02,378.92,151.64
					c146.24,33,303.05,45.13,466.08,36.06c168.64-9.39,336.16-41.14,497.9-94.39c162.53-53.49,309.31-125.05,436.29-212.68
					c123.06-84.93,222.57-181.41,295.75-286.76c55.59-80.04,94.15-162.95,114.74-246.7L2511.66,948.74z"/>
				<path d="M2496.62,768.39l8.25,90.46l-0.9,4.92c-17.33,94.54-57.94,188.29-120.7,278.64c-72.4,104.23-170.94,199.75-292.88,283.9
					c-126.08,87.02-271.9,158.09-433.39,211.25c-160.8,52.94-327.34,84.51-494.98,93.84c-161.99,9.01-317.75-3.03-462.95-35.8
					c-143.26-32.33-269.54-82.85-375.33-150.15c-109.34-69.56-192.27-154.33-246.49-251.97l-3.58-6.45l-14.79-50.28
					c1.02,1.98,2.04,3.95,3.08,5.91c53.69,101.54,137.12,189.61,247.96,261.76c106.71,69.45,234.43,121.45,379.61,154.55
					c113.45,25.87,234.09,38.98,358.54,38.98c33.85,0,68.46-0.98,102.85-2.91c166.94-9.38,332.77-41.14,492.89-94.39
					c160.89-53.5,306.2-125.06,431.9-212.69c121.82-84.94,220.33-181.42,292.77-286.77c40.73-59.24,72.51-120.77,94.45-182.89
					C2480.53,868.46,2491.82,818.18,2496.62,768.39z"/>
				<path d="M2486.09,668.51c11.75,141.01-32.15,288.41-126.95,426.28c-71.66,104.22-169.2,199.74-289.91,283.89
					c-124.8,87.01-269.14,158.08-428.99,211.24c-159.17,52.93-324.01,84.5-489.95,93.83c-160.33,9.01-314.5-3.03-458.24-35.8
					c-143.88-32.8-270.36-84.28-375.94-153c-109.21-71.09-191.34-157.74-244.12-257.56c-14.88-28.15-27.32-57.36-36.95-86.73
					l-9.29-31.58C3.84,1035.13,2.8,947.36,22.66,858.2c19.41-87.09,58.3-173.7,115.59-257.41
					c71.49-104.45,168.15-200.14,287.31-284.41c123.97-87.67,266.88-158.97,424.76-211.93c158.2-53.06,322.4-84.93,488.04-94.73
					c36.1-2.14,72.44-3.22,108-3.22c121.36,0,239.43,12.49,350.92,37.14c71.1,15.7,139.19,36.52,202.37,61.86
					c63.7,25.55,122.9,55.89,175.96,90.2c110.25,71.27,193.24,158.31,246.67,258.69c34.77,65.33,55.98,134.52,63.03,205.62
					L2486.09,668.51z M2424.91,756.48c2.22-20.13,3.3-40.46,3.21-60.4c0.14-85.56-21.08-168.44-63.05-246.31
					c-51.11-94.81-130.37-176.93-235.58-244.09c-101.45-64.75-222.28-112.73-359.15-142.58c-136.92-29.86-283.04-40.52-434.31-31.69
					c-156.64,9.15-311.91,38.91-461.49,88.43C725.16,169.31,589.89,235.95,472.5,317.92c-113.06,78.94-204.82,168.65-272.75,266.65
					c-33.44,48.25-60.6,98.13-80.72,148.25c-20.36,50.71-33.68,102.11-39.58,152.75c-2.38,20.4-3.59,41.01-3.59,61.26
					c-0.52,84.68,19.99,166.41,60.97,242.91c50.49,94.28,128.93,176.05,233.16,243.04c100.32,64.47,220.38,112.74,356.86,143.46
					c106.64,24.01,220.03,36.18,337.02,36.18c31.82,0,64.35-0.92,96.68-2.71c156.92-8.7,312.79-38.18,463.3-87.6
					c151.23-49.65,287.82-116.07,405.98-197.4c114.54-78.83,207.14-168.4,275.25-266.19c33.61-48.27,60.82-98.26,80.86-148.59
					C2406.18,859.09,2419.3,807.46,2424.91,756.48z"/>
				<path d="M2415.65,696.05c-0.02,18.56-1.08,37.43-3.13,56.06c-5.5,49.97-18.37,100.6-38.24,150.5
					c-19.72,49.53-46.51,98.75-79.63,146.3c-67.33,96.67-158.96,185.27-272.37,263.33c-117.27,80.72-252.89,146.66-403.09,195.97
					c-149.56,49.12-304.46,78.41-460.39,87.06c-150.66,8.37-295.53-2.81-430.58-33.21c-135.19-30.43-254.03-78.18-353.22-141.93
					c-102.59-65.93-179.73-146.29-229.3-238.85c-39.56-73.87-59.62-152.74-59.62-234.41c0.12-18.77,1.3-37.9,3.51-56.86
					c5.79-49.64,18.86-100.05,38.84-149.84c19.81-49.33,46.56-98.46,79.52-146.01c67.15-96.88,157.97-185.64,269.92-263.81
					c116.49-81.33,250.77-147.48,399.1-196.63c148.66-49.23,302.95-78.8,458.6-87.89c33.93-1.99,68.08-2.99,101.49-2.99
					c114.04,0,224.98,11.59,329.74,34.44c135.55,29.56,255.14,77.02,355.46,141.06c103.56,66.11,181.52,146.83,231.7,239.91
					C2394.52,533.5,2415.27,613.51,2415.65,696.05z M1867.76,696.93c6.39-57.3-4.62-112.47-32.73-163.96
					c-27.91-51.11-71.15-95.36-128.53-131.52c-55.22-34.8-120.96-60.57-195.4-76.6c-74.39-16.03-153.78-21.74-235.97-17.01
					c-85.08,4.9-169.42,20.86-250.66,47.44c-81.16,26.54-154.66,62.3-218.46,106.28c-61.51,42.4-111.44,90.61-148.42,143.28
					c-37.07,52.81-59.15,107.38-65.63,162.21c-6.74,57.08,3.82,111.79,31.39,162.61c12.83,23.66,29.35,46.26,49.08,67.15
					c37.4,40.13,86.06,73.8,144.61,100.1c39.05,17.53,82.16,31.61,128.13,41.82c57.8,12.85,119.26,19.36,182.67,19.36
					c17.24,0,34.87-0.49,52.4-1.45c85.05-4.66,169.53-20.43,251.1-46.88c81.97-26.57,156-62.11,220.05-105.64
					c40.98-27.85,77.1-58.49,107.36-91.06c16.09-17.17,30.76-35.11,43.62-53.34C1839.6,806.94,1861.6,752.17,1867.76,696.93z"/>
				<path d="M1826.18,538.4c26.97,49.41,37.54,102.32,31.41,157.27c-5.95,53.32-27.28,106.31-63.38,157.53
					c-36.29,51.45-85.71,98.61-146.89,140.19c-63.32,43.04-136.57,78.2-217.71,104.5c-80.81,26.2-164.51,41.82-248.76,46.44
					c-81.39,4.45-159.64-1.5-232.57-17.71c-22.68-5.05-44.65-11.03-65.76-17.92c-21.1-6.89-41.35-14.68-60.59-23.32
					c-86.58-38.88-151.41-94.6-187.5-161.13c-26.43-48.72-36.56-101.16-30.1-155.87c6.25-52.94,27.67-105.77,63.65-157.03
					c12.29-17.51,26.26-34.76,41.5-51.26c29.22-31.37,63.83-60.92,102.86-87.83c63.07-43.48,135.78-78.85,216.1-105.11
					c80.5-26.32,164.05-42.13,248.33-46.99c18.48-1.07,36.8-1.6,54.96-1.6c61.81,0,121.66,6.16,178.54,18.41
					c73.38,15.8,138.12,41.17,192.42,75.39c29.63,18.67,55.66,39.77,77.37,62.68C1798.44,494.7,1813.96,516.01,1826.18,538.4z
					 M1772.12,695.18c5.7-48.85-3.63-95.86-27.75-139.77c-3.31-6.01-6.94-12.03-10.8-17.87l-0.11-0.16
					c-1.87-2.46-3.92-5.03-6.44-8.1c-51.45-71.63-143.38-124.69-258.87-149.4c-63.37-13.57-131.01-18.41-201.04-14.4
					c-71.27,4.08-141.92,17.21-210.08,39.03l0.07-0.79l-6.16,2.02c-14.24,4.67-28.43,9.77-42.16,15.13l-2.44,0.95l-0.08,0.81
					c-114.56,45.28-208.71,114.2-265.22,194.19c-31.53,44.62-50.3,90.72-55.8,137.01c-5.72,48.15,3.25,94.3,26.65,137.17
					c4.55,8.33,9.7,16.6,15.31,24.61c1.8,2.98,3.67,5.95,5.56,8.81l0.11,0.16c30.61,40.19,73.56,73.93,127.71,100.36l-0.11,0.05
					l10.03,4.66c9.22,4.24,18.77,8.28,28.41,12.02l1.72,0.67l0.89-0.43c2.85,1.09,5.76,2.17,8.7,3.24l-1.02,0.49l9.76,3.35
					c21.03,7.23,43.29,13.45,66.17,18.5c49.42,10.92,101.96,16.45,156.17,16.45c14.75,0,29.81-0.41,44.78-1.23
					c72.69-3.95,144.89-17.35,214.61-39.81c138.85-44.73,251-119.63,315.8-210.92c23.79-33.52,40.41-68.35,49.4-103.54l0.62-2.45
					l0.03,0.01l0.29-1.28l0.78-3.45c1.29-5.75,2.4-11.64,3.3-17.55l0.07,0.02l1.11-8.55L1772.12,695.18z"/>
				<path d="M1736.89,559.46c22.91,41.7,31.99,86.29,27,132.59l-389.12-142.93l-1.28-0.47c-11.27-4.1-23.28-7.54-35.71-10.2
					c-1.69-0.36-3.39-0.7-5.1-1.04l-1.44-0.28c-1.27-0.24-2.55-0.48-3.83-0.71l-1.51-0.27c-1.57-0.28-3.14-0.54-4.72-0.79
					l-0.45-0.07c-1.74-0.27-3.48-0.52-5.22-0.77l-1.4-0.19c-1.31-0.18-2.62-0.35-3.93-0.51l-1.59-0.19
					c-1.46-0.18-2.93-0.34-4.41-0.5l-0.87-0.09c-1.75-0.18-3.52-0.35-5.28-0.5l-1.36-0.11c-1.34-0.11-2.68-0.21-4.02-0.31
					l-1.67-0.12c-1.39-0.09-2.78-0.17-4.18-0.25l-1.2-0.07c-1.77-0.09-3.54-0.17-5.31-0.23l-1.3-0.04c-1.37-0.04-2.73-0.08-4.1-0.11
					c-0.58-0.01-1.17-0.02-1.75-0.03c-1.34-0.02-2.67-0.03-4.01-0.04l-1.96-0.01c-0.27,0-0.53,0.01-0.79,0.01l-0.59,0.01
					c-1.69,0-3.38,0.02-5.07,0.05c-0.78,0.01-1.56,0.03-2.34,0.05c-1.56,0.04-3.11,0.08-4.67,0.14l-0.17,0.01
					c-0.71,0.02-1.42,0.05-2.13,0.08c-1.76,0.08-3.52,0.17-5.28,0.27l-1.59,0.09c-2.29,0.14-4.58,0.3-6.87,0.48l-1.48,0.13
					c-1.8,0.15-3.6,0.31-5.41,0.49l-2.26,0.23c-1.59,0.16-3.17,0.34-4.76,0.52l-0.21,0.02c-0.7,0.08-1.4,0.16-2.1,0.25
					c-1.71,0.21-3.43,0.44-5.14,0.67l-1.77,0.24c-2.3,0.32-4.6,0.66-6.9,1.03l-1.14,0.19c-1.91,0.31-3.82,0.63-5.73,0.97
					c-0.58,0.11-1.16,0.21-1.74,0.32l-0.49,0.09c-1.57,0.29-3.15,0.59-4.73,0.9c-0.79,0.16-1.57,0.31-2.35,0.47
					c-1.64,0.34-3.29,0.69-4.93,1.04l-0.69,0.15c-0.42,0.09-0.85,0.18-1.27,0.27c-2.28,0.5-4.56,1.02-6.83,1.57l-0.69,0.17
					c-2.03,0.49-4.06,1-6.09,1.53c-0.52,0.14-1.05,0.28-1.57,0.42l-0.6,0.16c-1.56,0.41-3.12,0.84-4.68,1.27
					c-0.78,0.22-1.57,0.45-2.36,0.67c-1.58,0.45-3.15,0.91-4.72,1.38l-0.69,0.21c-0.46,0.14-0.93,0.28-1.39,0.42
					c-2.24,0.69-4.47,1.38-6.7,2.11c-6.09,1.98-12.22,4.16-18.24,6.47c-35.45,13.62-67.11,32.33-92.03,54.28l16.53-179.43
					c3.9-1.33,7.87-2.65,11.8-3.93c68.6-22.3,139.81-35.68,211.64-39.8c69.32-3.98,136.26,0.81,198.96,14.23
					c110.03,23.55,198.69,73.34,249.65,140.21C1730.24,547.92,1733.71,553.68,1736.89,559.46z"/>
				<path d="M1370.55,556.7l392.25,144.04c-0.67,4.61-1.48,9.26-2.43,13.89l-324.48-119.88l9.75,12.03
					c2.65,3.27,5.13,6.68,7.36,10.13c1.47,2.28,2.86,4.61,4.14,6.94c1.93,3.54,3.68,7.19,5.17,10.84
					c3.29,8.04,5.51,16.39,6.59,24.83c3.52,27.47-4.78,56.35-24.02,83.5c-15.71,22.18-38.69,42.95-66.46,60.07l-478.15,229.96
					c-6.7-2.62-13.33-5.39-19.81-8.25l352.52-171.87l-21.38,1.32c-32.28,1.99-63.3-0.23-92.2-6.63
					c-57.37-12.69-100.05-40.04-120.18-77c-3.94-7.23-6.96-14.8-8.98-22.48c-0.35-1.32-0.67-2.67-0.96-4
					c-0.03-0.12-0.05-0.24-0.07-0.36l-0.08-0.43c-0.22-1.08-0.44-2.16-0.63-3.24c-0.04-0.23-0.08-0.46-0.11-0.69l-0.16-1.04
					c-0.13-0.77-0.25-1.55-0.35-2.33c-0.03-0.24-0.06-0.49-0.08-0.74l-0.11-1.05c-0.09-0.77-0.17-1.54-0.24-2.31
					c-0.02-0.24-0.04-0.48-0.05-0.72l-0.07-1.01c-0.06-0.8-0.12-1.6-0.15-2.4c-0.01-0.19-0.01-0.39-0.01-0.58l-0.02-0.74
					c-0.03-0.95-0.06-1.89-0.06-2.84c0-0.14,0.01-0.29,0.01-0.44l0.01-0.49c0.01-1.08,0.02-2.16,0.07-3.24l0.04-0.7
					c0.06-1.17,0.12-2.34,0.22-3.49l26.86-287.47c10.83-4.19,21.95-8.2,33.12-11.97l-18.99,205.58l-0.88,11.25l8.14-7.9
					c6.35-6.17,13.3-12.17,20.66-17.83c4.18-3.22,8.58-6.39,13.07-9.43c1.12-0.76,2.26-1.52,3.4-2.27
					c23.04-15.11,49.31-27.52,78.07-36.88c61.2-19.93,126.94-24.03,185.1-11.56c4.71,1.01,9.48,2.17,14.17,3.44
					c6.5,1.76,12.91,3.77,19.05,5.96l0.59,0.21C1370.05,556.52,1370.31,556.61,1370.55,556.7z M1432.49,642.26l-9.81-16.01
					c-0.11-0.17-0.22-0.35-0.33-0.52l-0.2-0.32c-0.35-0.56-0.71-1.12-1.07-1.68c-0.2-0.32-0.42-0.63-0.63-0.95l-0.08-0.11
					c-0.44-0.67-0.89-1.33-1.35-1.98l-0.44-0.62c-0.57-0.8-1.15-1.6-1.76-2.41c-17.43-23.04-45.33-40.73-80.67-51.17l-0.17-0.05
					c-1.32-0.39-2.66-0.77-4-1.14l-0.97-0.26c-1.11-0.3-2.21-0.6-3.33-0.88c-0.44-0.11-0.89-0.22-1.34-0.33l-1.33-0.33
					c-0.57-0.14-1.15-0.28-1.73-0.42c-1.5-0.35-3.01-0.69-4.53-1.02c-4.65-1-9.43-1.89-14.22-2.65
					c-14.27-2.26-29.12-3.42-44.16-3.46c-33.33-0.1-68.05,5.46-100.37,16.01c-1.63,0.54-3.26,1.08-4.87,1.64
					c-3.2,1.11-6.42,2.28-9.57,3.48c-36.14,13.8-67.13,33.57-89.62,57.17c-1.95,2.04-3.86,4.15-5.69,6.26
					c-1.82,2.11-3.61,4.28-5.3,6.44c-1.7,2.17-3.35,4.39-4.9,6.6c-0.79,1.12-1.55,2.24-2.3,3.36
					c-13.45,20.27-20.21,40.98-20.08,61.54c0.06,10.22,1.88,20.29,5.4,29.94c1.57,4.3,3.51,8.58,5.75,12.71
					c0.5,0.91,1.02,1.83,1.55,2.73c0.16,0.27,0.31,0.53,0.47,0.79l0.08,0.13c0.37,0.61,0.74,1.22,1.12,1.82l0.14,0.22
					c0.17,0.26,0.33,0.53,0.5,0.79c0.47,0.74,0.96,1.47,1.45,2.19c0.27,0.39,0.54,0.79,0.82,1.18l0.08,0.11
					c0.36,0.51,0.72,1.02,1.09,1.53c0.31,0.42,0.62,0.84,0.94,1.26c0.31,0.42,0.64,0.84,0.96,1.26l0.17,0.21
					c0.28,0.36,0.56,0.72,0.85,1.08c0.24,0.3,0.49,0.59,0.73,0.89l0.41,0.5c0.36,0.43,0.72,0.87,1.08,1.29l11.62,13.77l1.23-0.89
					c20.14,17.41,47.79,30.37,80.33,37.59c2.38,0.53,4.83,1.04,7.25,1.5c16.9,3.24,34.66,4.88,52.8,4.88
					c22.59,0,45.54-2.52,68.21-7.5c10.34-2.27,20.67-5.07,30.71-8.32c6.11-1.98,12.22-4.17,18.17-6.5
					c5.82-2.29,11.53-4.73,16.99-7.27c3.13-1.45,6.24-2.97,9.24-4.5c6.1-3.12,12.08-6.46,17.76-9.93c2.78-1.7,5.68-3.57,8.87-5.71
					c3.92-2.64,7.72-5.35,11.29-8.08c0.85-0.65,1.69-1.3,2.52-1.95c14.64-11.51,26.84-24.11,36.26-37.45
					c21.95-31.08,27.84-64.93,16.54-95.28c-0.01-0.03-0.03-0.07-0.04-0.11L1432.49,642.26z"/>
				<path d="M1466.12,622.69l290.56,107.34c-8.93,32.92-24.78,65.55-47.12,97.02c-63.75,89.8-174.36,163.58-311.48,207.75
					c-69.03,22.24-140.51,35.5-212.47,39.42c-69.52,3.78-136.35-1.27-198.66-15.04c-19-4.19-37.58-9.21-55.35-14.94l424.23-205.05
					c42.47-20.39,76.51-47.52,98.43-78.46c23.75-33.52,31.7-68.98,23-102.56c-0.03-0.19-0.05-0.37-0.08-0.55l-0.11-0.75
					c-0.04-0.32-0.09-0.65-0.14-0.98c-0.04-0.25-0.08-0.5-0.12-0.75l-0.12-0.72c-0.05-0.34-0.11-0.68-0.17-1.02
					c-0.04-0.25-0.09-0.5-0.14-0.75l-0.15-0.77c-0.06-0.31-0.12-0.63-0.18-0.95c-0.05-0.24-0.1-0.47-0.15-0.71l-0.17-0.78
					c-0.07-0.33-0.14-0.66-0.21-0.98c-0.05-0.22-0.11-0.45-0.16-0.67l-0.15-0.65c-0.09-0.38-0.18-0.77-0.28-1.15
					c-0.05-0.21-0.11-0.43-0.17-0.65l-0.13-0.49c-0.11-0.44-0.23-0.88-0.35-1.31l-0.35-1.21c-0.12-0.41-0.24-0.82-0.36-1.23
					l-0.33-1.06c-0.14-0.45-0.28-0.91-0.43-1.36l-0.33-0.96c-0.17-0.49-0.33-0.97-0.5-1.45l-0.33-0.91c-0.18-0.5-0.36-1-0.55-1.5
					l-0.43-1.09c-0.17-0.43-0.34-0.87-0.52-1.3l-0.43-1.03c-0.19-0.45-0.38-0.89-0.57-1.34l-0.63-1.4
					c-0.14-0.32-0.28-0.64-0.43-0.96c-0.18-0.39-0.36-0.77-0.55-1.16l-0.27-0.56c-0.09-0.2-0.19-0.4-0.29-0.61
					C1466.7,623.84,1466.41,623.26,1466.12,622.69z"/>
				<path d="M1428.12,670.71c1.02,20.79-6.09,42.61-20.56,63.1c-16.52,23.4-41.98,44.3-73.61,60.45l-9.02,4.4
					c-3.78,1.76-7.76,3.51-11.83,5.18l-0.58,0.24c-1.4,0.57-2.8,1.13-4.26,1.7c-5.7,2.23-11.58,4.33-17.49,6.24
					c-45.14,14.61-92.22,18.96-136.25,12.57c-2.16-0.32-4.49-0.69-7.12-1.15c-1.6-0.28-3.2-0.57-4.79-0.88
					c-2.46-0.48-4.48-0.89-6.35-1.31c-38.77-8.61-69.45-25.17-88.73-47.89c-0.77-1.27-1.52-2.58-2.23-3.88
					c-16.47-30.33-12.67-65.35,10.71-98.61c23.9-34,64.97-61.84,115.65-78.39c51.03-16.67,105.84-20.1,154.33-9.67
					c38.46,8.27,70.27,25.34,89.6,48.08c0.86,1.42,1.55,2.6,2.16,3.72c4.7,8.59,7.85,17.63,9.38,26.86c0.34,2.03,0.6,4.1,0.78,6.15
					C1428,668.65,1428.07,669.68,1428.12,670.71z"/>
				<path d="M1167.44,875.44l-297.02,144.81c-55.81-26.24-99.78-60.11-130.7-100.67c-3.79-5.75-7.36-11.68-10.61-17.65
					c-22.61-41.42-31.28-86.01-25.75-132.52c5.35-44.99,23.65-89.88,54.42-133.43c26.51-37.53,61.31-72.6,103.42-104.23
					c41.76-31.36,89.63-58.5,142.37-80.71l-24.41,261.43c-0.07,0.66-0.13,1.31-0.18,1.89l-0.03,0.3c-0.5,6.03-0.5,12.09,0.01,18.03
					c0.01,0.21,0.04,0.41,0.06,0.62l0.04,0.39c0.11,1.15,0.22,2.3,0.37,3.44c0.04,0.31,0.08,0.61,0.13,0.91l0.15,1.04
					c0.12,0.83,0.24,1.65,0.38,2.47c0.06,0.36,0.14,0.72,0.21,1.08l0.23,1.18c0.13,0.71,0.27,1.41,0.42,2.12
					c0.09,0.37,0.18,0.75,0.27,1.12l0.3,1.28c0.13,0.58,0.26,1.15,0.41,1.72c1.69,12.97,5.82,25.56,12.29,37.43
					c21.33,39.16,66.01,68.01,125.81,81.24C1135.18,872.08,1151.08,874.33,1167.44,875.44z"/>
			</g>
			<g>
			</g>
		</g>
	</g>
</g>
<g id="Layer_2">
</g>
</svg>
