<?xml version="1.0" encoding="utf-8"?>
<!-- Generator: Adobe Illustrator 20.0.0, SVG Export Plug-In . SVG Version: 6.00 Build 0)  -->
<svg version="1.1" id="Layer_1" xmlns="http://www.w3.org/2000/svg" xmlns:xlink="http://www.w3.org/1999/xlink" x="0px" y="0px"
	 viewBox="0 0 2619.26 1584.8" style="enable-background:new 0 0 2619.26 1584.8;" xml:space="preserve">
<style type="text/css">
	.st0{stroke:#FFFFFF;stroke-width:4.6113;}
</style>
<g id="Layer_x0020_1">
	<path d="M311.8,880.98c0.86,0.74,5.53,4.92,12.91,11.43c7.99,6.88,19.06,16.6,32.09,27.78c11.68,10.08,25.08,21.51,38.97,33.56
		c12.42,10.57,25.2,21.51,37.74,32.09c9.34,7.87,18.44,15.49,26.92,22.62c7.87,6.52,14.88,12.29,20.53,16.97
		c5.41,4.43,10.2,8.24,14.02,11.31c2.95,2.21,5.04,3.81,6.39,4.67l0.86,0.49c1.72,1.11,7.38,3.69,17.58,6.76
		c6.76,1.97,15.37,4.18,25.69,6.15c8.61,1.6,18.32,3.07,29.14,4.3l0,0c9.59,0.98,20.16,1.72,31.47,2.09h0.25
		c9.1,0.37,18.81,0.37,29.01,0.12c10.2-0.25,21.27-0.86,32.95-1.84c11.68-0.98,23.85-2.34,36.51-4.06
		c12.05-1.72,24.71-3.81,37.99-6.39l2.09-0.49c1.35-0.25,3.57-0.74,6.39-1.23c2.21-0.37,5.04-0.98,8.36-1.6
		c4.67-0.86,7.38-1.35,8.61-1.48c2.09-0.37,4.67-0.86,7.75-1.48l1.72-0.25c47.58-8.73,104.25-19.3,133.27-35.53l0.86-0.49l0,0
		c35.9-20.04,92.2-51.27,161.66-89.5c80.65-44.5,179.37-98.72,284.6-156.5c127-69.71,271.2-148.76,405.7-222.4
		c197.69-108.19,367.83-201.25,430.04-235.3L1725.96,0l-719.31,368.94l0,0l-3.07,1.6c-10.2,5.29-20.16,10.2-29.75,14.88
		c-9.47,4.67-19.18,9.22-29.01,13.77c-9.71,4.43-19.18,8.61-28.52,12.54c-9.59,4.06-18.81,7.99-27.91,11.56L477.4,634.24l0,0l0,0
		l0,0c-6.52,3.2-14.38,7.99-23.24,14.02c-8.48,5.9-17.95,12.91-27.66,20.78c-9.22,7.5-18.81,15.74-28.28,24.71
		c-8.97,8.24-17.83,17.09-26.43,26.19l-2.21,2.46c-6.76,7.38-13.28,15-19.55,22.87c-6.39,7.99-12.42,16.23-17.83,24.46
		c-5.16,7.62-9.71,15.24-13.52,22.87c-3.69,7.13-6.88,14.26-9.22,21.39l-0.61,1.6c-1.72,5.53-3.2,10.57-4.18,15.37
		c-1.11,5.16-1.72,9.84-2.09,14.14c-0.37,4.18-0.37,7.87-0.12,11.19c0.12,3.32,0.61,6.27,1.23,8.73l0.12,0.86
		c0.49,1.97,1.11,3.69,1.84,5.29c0.74,1.84,1.48,3.32,2.34,4.67c0.74,1.23,1.48,2.21,2.09,3.07c0.61,0.74,1.11,1.35,1.6,1.84h0.12
		V880.98z"/>
	<path d="M748.23,1065.26c-57.17,11.19-104.87,14.14-142.73,12.79c-68.97-2.21-106.71-18.19-112.24-21.64
		c-7.25-4.55-36.88-28.89-70.69-57.66c-54.58-46.1-120.6-103.51-123.43-106.59c-2.46-2.83-8.85-9.71-11.93-23.48
		c-3.07-12.91-3.32-32.46,6.15-60.12c11.56-33.69,37.13-68.97,66.02-100.07c39.09-41.8,84.46-76.47,110.28-89.5l359.47-184.41
		c-1.72,0.49-3.69,1.11-5.66,1.84c-58.03,18.19-118.02,30.73-188.71,40.08c-129.58,17.33-285.71,63.44-411.97,147.16
		C125.18,688.33,45.64,775.5,10.72,889.22C0.27,923.02-3.78,958.68,4.33,991.99c6.88,27.66,22.13,54.09,49.42,76.34
		c16.35,13.28,36.64,31.47,59.63,52.25c39.96,36.02,88.27,79.66,138.18,117.16c43.77,32.95,88.64,61.1,129.95,75.36
		c100.44,34.67,223.01,37.13,339.8,23.73c166.21-19.06,320.01-69.95,381.6-106.34c67.37-39.83,118.27-80.89,156.87-118.88
		c38.48-37.99,64.79-73.03,83.35-101.55c4.06-6.02,6.39-9.71,8.85-13.28c44.26-68.72,73.76-114.58,260.51-216
		c316.69-172.48,606.95-349.15,655.88-379.02l-49.42-93.43c-99.09,54.22-1089.85,596.13-1299.71,713.41
		c-31.84,17.83-91.1,28.64-140.15,37.74C768.52,1061.33,758.31,1063.3,748.23,1065.26z M225.74,1082.47L225.74,1082.47z
		 M335.89,1052.85c-5.41,4.43-10.2,8.11-13.4,10.7c-7.99,6.52-16.23,13.28-24.71,20.04l-4.06,3.32l-15.61,12.54l-16.23,12.91
		c-5.41,4.43-12.42,7.01-19.3,7.5c-6.76,0.74-13.77-0.74-18.93-4.55c-1.97-1.23-3.44-2.7-4.79-4.55c-2.46-3.2-3.44-7.01-3.44-10.7
		c0.25-3.81,1.48-7.62,3.93-11.06c1.6-2.34,3.81-4.55,6.39-6.52l18.19-13.15l17.46-12.91c5.53-4.06,11.06-7.99,16.35-12.05
		c5.29-3.81,10.57-7.62,15.61-11.56c8.48-6.15,14.14-10.33,19.67-14.38l9.47-6.88l13.4-9.96c4.3-3.2,8.73-6.52,12.91-9.59l0.25-0.12
		c4.3-3.2,9.59-4.18,14.38-3.44c4.79,0.86,9.34,3.44,12.42,7.62l0.12,0.37c3.07,4.06,4.3,9.1,3.57,13.77
		c-0.49,4.92-2.83,9.47-6.76,12.79l-7.87,6.27c-5.29,4.3-10.7,8.61-16.23,13.15L335.89,1052.85z"/>
	<path d="M1113.85,1248.07c-63.44,37.37-220.43,89.62-389.22,108.8c-119.25,13.65-245.02,10.94-348.29-24.71
		c-43.64-15.12-90.24-44.38-135.6-78.31c-51.27-38.36-100.56-82.86-141.63-119.62c-22.5-20.41-42.41-38.48-58.64-51.63
		c-13.4-10.82-24.22-22.74-32.82-35.28c5.66,62.94,13.65,140.27,22.87,190.19c0.37,2.09,2.95,6.76,6.02,12.05
		c5.04,8.11,11.19,16.72,13.65,19.42c36.64,40.69,110.15,117.78,188.59,182.69c50.53,42.05,103.02,78.56,148.26,96.63
		c97.24,38.73,222.76,42.78,344.11,29.75c176.29-18.93,343.49-73.52,405.57-110.4c130.31-77.08,190.19-168.67,227.56-226.21
		l3.57-5.53c8.24-12.29,14.38-22.87,20.04-32.7c32.33-55.32,54.83-93.43,230.63-191.54c140.4-78.19,278.82-155.76,392.67-219.81
		c116.3-65.4,199.9-112.73,238.75-134.74c11.56-6.52,19.3-21.51,21.51-26.55l-0.37-206.41c-67.74,41.43-345.21,209.36-648.26,374.35
		c-182.32,99.21-210.96,143.47-253.62,209.49c-3.2,5.16-6.64,10.45-8.61,13.52c-19.18,29.26-46.35,65.53-86.18,104.74
		C1234.82,1165.21,1182.57,1207.26,1113.85,1248.07z M97.27,1177.26L97.27,1177.26z M268.52,1352.82
		c-0.37,5.53-0.49,10.57-0.86,14.75c-0.25,7.01-0.61,12.42-0.74,13.4c-0.25,1.6-0.86,3.69-3.81,6.27
		c-2.21,1.84-6.02,4.06-12.66,6.88c-5.66,2.58-9.96,4.06-15,3.44c-4.92-0.86-9.71-3.57-16.84-9.84
		c-13.03-11.31-98.35-84.58-102.16-88.15c-0.98-0.61-8.97-6.76-16.97-23.36c-7.99-16.97-18.32-36.51-18.32-36.51
		c-0.49-0.98-3.2-7.62-3.93-32.46c-0.49-16.47-0.86-21.39-0.98-22.99v-0.74c0-0.98,0-1.23,0.12-1.84v-0.12
		c0.37-1.23,0.98-2.46,1.84-3.81c0.74-0.98,1.72-2.09,2.95-2.95l0.12-0.12c2.95-2.21,6.39-4.92,15.74,2.46l0.25,0.12l149.62,127.61
		c9.59,8.11,15.12,16.6,18.32,24.71C268.28,1337.7,269.02,1345.69,268.52,1352.82z"/>
	<path d="M252.42,1341.88L252.42,1341.88z M255.49,1355.28c1.72,0.49,3.44,0.49,5.16,0.25c0.98-0.12,2.09-0.37,3.07-0.74l0.25-2.34
		v-1.72v-1.23c-0.98-0.25-1.97-0.74-3.07-1.35c-0.61-0.25-1.23-0.61-1.84-0.98c-1.97-1.35-4.06-2.95-6.64-5.29
		c-12.05-10.33-90.97-78.19-91.71-79.05c-0.74-0.49-7.5-5.66-14.38-20.16c-2.95-6.02-6.15-12.54-8.97-18.07
		c-0.86-1.72-1.72-3.44-2.58-5.04c-1.6-3.2-2.95-5.78-3.93-7.5l-11.31-9.71c0.12,1.72,0.25,3.2,0.37,4.55
		c0.98,7.87,1.84,9.47,1.84,9.47c0,0.12,9.47,17.83,16.6,32.82c7.01,14.75,13.89,19.55,13.89,19.55
		c0.25,0.25,79.66,68.48,91.84,79.17C248.98,1352.2,252.42,1354.42,255.49,1355.28z"/>
	<line class="st0" x1="2619.23" y1="84.83" x2="2619.23" y2="84.83"/>
	<line class="st0" x1="1187.61" y1="173.59" x2="1187.61" y2="173.59"/>
	<path d="M2403.72,245.26l-157.61,89.99l6.39,12.42l161.3-92.94c0.49,1.11,0.61,2.34,0.61,3.69v0.37l-0.12,4.06l-1.35,45.49
		c-0.25,7.87-0.25,8.24-10.2,12.79c-39.71,21.88-88.39,53.36-129.58,69.46l6.76,13.89l17.95-7.75c-0.12-0.25,0,0.25,0,0
		l126.26-69.58c6.02-2.7,6.39-7.99,6.76-12.91l0.12-0.37v-0.25l1.72-55.81l0.12-4.3v-0.37c0-6.64-4.18-9.47-9.96-13.15
		c-0.25-0.12-0.74-0.49-1.6-1.11c-67.99-45-91.84-60.36-156.13-102.04c-37.25-24.1-88.02-56.92-169.16-109.42l-0.12-0.25l-0.25-0.12
		c-2.09-0.98-5.29-1.35-8.48-1.35c-3.81,0.25-8.11,0.98-9.71,1.84l-89.38,48.19l-60.85,33.19l14.88,9.71l53.97-29.51l82.25-44.38
		c1.48-0.74,5.41-1.48,8.97-1.6c2.83,0,5.78,0.25,7.75,1.23l0.12,0.12l0.25,0.12c74.62,48.31,121.22,78.56,155.52,100.69
		c59.01,38.23,81.02,52.49,143.59,93.8h0.12L2403.72,245.26z"/>
</g>
</svg>
