<?xml version="1.0" encoding="utf-8"?>
<!-- Generator: Adobe Illustrator 20.0.0, SVG Export Plug-In . SVG Version: 6.00 Build 0)  -->
<svg version="1.1" id="Layer_1" xmlns="http://www.w3.org/2000/svg" xmlns:xlink="http://www.w3.org/1999/xlink" x="0px" y="0px"
	 viewBox="0 0 3339.7 2382" style="enable-background:new 0 0 3339.7 2382;" xml:space="preserve">
<style type="text/css">
	.st0{fill-rule:evenodd;clip-rule:evenodd;}
	.st1{fill:#FFFFFF;}
</style>
<g>
	<path class="st0" d="M3220.8,916.4l8.3,91l-0.9,4.9c-17.4,95.1-58.3,189.4-121.4,280.2c-72.8,104.8-171.9,200.9-294.6,285.5
		c-126.8,87.5-273.5,159-435.9,212.5c-161.7,53.2-329.2,85-497.8,94.4c-162.9,9.1-319.6-3-465.6-36
		c-144.1-32.5-271.1-83.3-377.5-151c-110-70-193.4-155.2-247.9-253.4l-3.6-6.5l-14.9-50.6c1,2,2.1,4,3.1,5.9
		c54,102.1,137.9,190.7,249.4,263.3c107.3,69.9,235.8,122.2,381.8,155.4c114.1,26,235.4,39.2,360.6,39.2c34,0,68.9-1,103.4-2.9
		c167.9-9.4,334.7-41.4,495.7-94.9c161.8-53.8,308-125.8,434.4-213.9c122.5-85.4,221.6-182.5,294.5-288.4
		c41-59.6,72.9-121.5,95-183.9C3204.7,1017,3216,966.4,3220.8,916.4"/>
</g>
<g>
	<path class="st0" d="M2492.2,842.7c5.7-49.1-3.7-96.4-27.9-140.6c-3.3-6-7-12.1-10.9-18l-0.1-0.2c-1.9-2.5-3.9-5.1-6.5-8.1
		c-51.7-72-144.2-125.4-260.4-150.3c-63.7-13.6-131.8-18.5-202.2-14.5c-71.7,4.1-142.7,17.3-211.3,39.3l0.1-0.8l-6.2,2
		c-14.3,4.7-28.6,9.8-42.4,15.2l-2.5,1l-0.1,0.8c-115.2,45.5-209.9,114.9-266.7,195.3c-31.7,44.9-50.6,91.2-56.1,137.8
		c-5.8,48.4,3.3,94.8,26.8,138c4.6,8.4,9.8,16.7,15.4,24.8c1.8,3,3.7,6,5.6,8.9l0.1,0.2c30.8,40.4,74,74.4,128.4,100.9l-0.1,0.1
		l10.1,4.7c9.3,4.3,18.9,8.3,28.6,12.1l1.7,0.7l0.9-0.4c2.9,1.1,5.8,2.2,8.8,3.3l-1,0.5l9.8,3.4c21.2,7.3,43.5,13.5,66.6,18.6
		c49.7,11,102.5,16.5,157.1,16.5c14.8,0,30-0.4,45-1.2c73.1-4,145.7-17.4,215.8-40c139.7-45,252.4-120.3,317.6-212.1
		c23.9-33.7,40.6-68.7,49.7-104.1l0.6-2.5l0,0l0.3-1.3l0.8-3.5c1.3-5.8,2.4-11.7,3.3-17.7l0.1,0L2492.2,842.7L2492.2,842.7z
		 M2546.5,685c27.1,49.7,37.8,102.9,31.6,158.2c-6,53.6-27.4,106.9-63.7,158.4c-36.5,51.7-86.2,99.2-147.7,141
		c-63.7,43.3-137.4,78.7-219,105.1c-81.3,26.4-165.5,42.1-250.2,46.7c-81.9,4.5-160.6-1.5-233.9-17.8c-22.8-5.1-44.9-11.1-66.1-18
		c-21.2-6.9-41.6-14.8-60.9-23.5c-87.1-39.1-152.3-95.1-188.6-162.1c-26.6-49-36.8-101.7-30.3-156.8c6.3-53.2,27.8-106.4,64-157.9
		c12.4-17.6,26.4-35,41.7-51.6c29.4-31.6,64.2-61.3,103.5-88.3c63.4-43.7,136.6-79.3,217.3-105.7c81-26.5,165-42.4,249.8-47.3
		c18.6-1.1,37-1.6,55.3-1.6c62.2,0,122.4,6.2,179.6,18.5c73.8,15.9,138.9,41.4,193.5,75.8c29.8,18.8,56,40,77.8,63
		C2518.6,641.1,2534.2,662.5,2546.5,685z"/>
</g>
<g>
	<path class="st0" d="M2456.7,706.2c23,41.9,32.2,86.8,27.2,133.4l-391.4-143.8l-1.3-0.5c-11.3-4.1-23.4-7.6-35.9-10.3
		c-1.7-0.4-3.4-0.7-5.1-1l-1.4-0.3c-1.3-0.2-2.6-0.5-3.9-0.7l-1.5-0.3c-1.6-0.3-3.2-0.5-4.7-0.8l-0.5-0.1c-1.8-0.3-3.5-0.5-5.3-0.8
		l-1.4-0.2c-1.3-0.2-2.6-0.4-4-0.5l-1.6-0.2c-1.5-0.2-2.9-0.3-4.4-0.5l-0.9-0.1c-1.8-0.2-3.5-0.4-5.3-0.5l-1.4-0.1
		c-1.3-0.1-2.7-0.2-4-0.3l-1.7-0.1c-1.4-0.1-2.8-0.2-4.2-0.3l-1.2-0.1c-1.8-0.1-3.6-0.2-5.3-0.2l-1.3,0c-1.4,0-2.7-0.1-4.1-0.1
		c-0.6,0-1.2,0-1.8,0c-1.3,0-2.7,0-4,0l-2,0c-0.3,0-0.5,0-0.8,0l-0.6,0c-1.7,0-3.4,0-5.1,0.1c-0.8,0-1.6,0-2.4,0.1
		c-1.6,0-3.1,0.1-4.7,0.1l-0.2,0c-0.7,0-1.4,0.1-2.1,0.1c-1.8,0.1-3.5,0.2-5.3,0.3l-1.6,0.1c-2.3,0.1-4.6,0.3-6.9,0.5l-1.5,0.1
		c-1.8,0.2-3.6,0.3-5.4,0.5l-2.3,0.2c-1.6,0.2-3.2,0.3-4.8,0.5l-0.2,0c-0.7,0.1-1.4,0.2-2.1,0.3c-1.7,0.2-3.4,0.4-5.2,0.7l-1.8,0.2
		c-2.3,0.3-4.6,0.7-6.9,1l-1.1,0.2c-1.9,0.3-3.8,0.6-5.8,1c-0.6,0.1-1.2,0.2-1.8,0.3l-0.5,0.1c-1.6,0.3-3.2,0.6-4.8,0.9
		c-0.8,0.2-1.6,0.3-2.4,0.5c-1.6,0.3-3.3,0.7-5,1l-0.7,0.2c-0.4,0.1-0.9,0.2-1.3,0.3c-2.3,0.5-4.6,1-6.9,1.6l-0.7,0.2
		c-2,0.5-4.1,1-6.1,1.5c-0.5,0.1-1.1,0.3-1.6,0.4l-0.6,0.2c-1.6,0.4-3.1,0.8-4.7,1.3c-0.8,0.2-1.6,0.5-2.4,0.7
		c-1.6,0.5-3.2,0.9-4.7,1.4l-0.7,0.2c-0.5,0.1-0.9,0.3-1.4,0.4c-2.3,0.7-4.5,1.4-6.7,2.1c-6.1,2-12.3,4.2-18.3,6.5
		c-35.7,13.7-67.5,32.5-92.6,54.6l16.6-180.5c3.9-1.3,7.9-2.7,11.9-4c69-22.4,140.6-35.9,212.9-40c69.7-4,137,0.8,200.1,14.3
		c110.7,23.7,199.8,73.8,251.1,141C2450,694.6,2453.5,700.4,2456.7,706.2"/>
</g>
<g>
	<path class="st0" d="M2150.6,789.5l-9.9-16.1c-0.1-0.2-0.2-0.4-0.3-0.5l-0.2-0.3c-0.4-0.6-0.7-1.1-1.1-1.7c-0.2-0.3-0.4-0.6-0.6-1
		l-0.1-0.1c-0.4-0.7-0.9-1.3-1.4-2l-0.4-0.6c-0.6-0.8-1.2-1.6-1.8-2.4c-17.5-23.2-45.6-41-81.1-51.5l-0.2-0.1
		c-1.3-0.4-2.7-0.8-4-1.1l-1-0.3c-1.1-0.3-2.2-0.6-3.3-0.9c-0.4-0.1-0.9-0.2-1.3-0.3l-1.3-0.3c-0.6-0.1-1.2-0.3-1.7-0.4
		c-1.5-0.4-3-0.7-4.6-1c-4.7-1-9.5-1.9-14.3-2.7c-14.4-2.3-29.3-3.4-44.4-3.5c-33.5-0.1-68.4,5.5-100.9,16.1
		c-1.6,0.5-3.3,1.1-4.9,1.6c-3.2,1.1-6.5,2.3-9.6,3.5c-36.3,13.9-67.5,33.8-90.1,57.5c-2,2.1-3.9,4.2-5.7,6.3
		c-1.8,2.1-3.6,4.3-5.3,6.5c-1.7,2.2-3.4,4.4-4.9,6.6c-0.8,1.1-1.6,2.3-2.3,3.4c-13.5,20.4-20.3,41.2-20.2,61.9
		c0.1,10.3,1.9,20.4,5.4,30.1c1.6,4.3,3.5,8.6,5.8,12.8c0.5,0.9,1,1.8,1.6,2.7c0.2,0.3,0.3,0.5,0.5,0.8l0.1,0.1
		c0.4,0.6,0.7,1.2,1.1,1.8l0.1,0.2c0.2,0.3,0.3,0.5,0.5,0.8c0.5,0.7,1,1.5,1.5,2.2c0.3,0.4,0.5,0.8,0.8,1.2l0.1,0.1
		c0.4,0.5,0.7,1,1.1,1.5c0.3,0.4,0.6,0.8,0.9,1.3c0.3,0.4,0.6,0.8,1,1.3l0.2,0.2c0.3,0.4,0.6,0.7,0.9,1.1c0.2,0.3,0.5,0.6,0.7,0.9
		l0.4,0.5c0.4,0.4,0.7,0.9,1.1,1.3l11.7,13.8l1.2-0.9c20.3,17.5,48.1,30.5,80.8,37.8c2.4,0.5,4.9,1,7.3,1.5
		c17,3.3,34.9,4.9,53.1,4.9c22.7,0,45.8-2.5,68.6-7.5c10.4-2.3,20.8-5.1,30.9-8.4c6.1-2,12.3-4.2,18.3-6.5
		c5.9-2.3,11.6-4.8,17.1-7.3c3.1-1.5,6.3-3,9.3-4.5c6.1-3.1,12.1-6.5,17.9-10c2.8-1.7,5.7-3.6,8.9-5.7c3.9-2.7,7.8-5.4,11.4-8.1
		c0.9-0.7,1.7-1.3,2.5-2c14.7-11.6,27-24.2,36.5-37.7c22.1-31.3,28-65.3,16.6-95.8c0,0,0-0.1,0-0.1L2150.6,789.5z M2088.3,703.4
		l394.5,144.9c-0.7,4.6-1.5,9.3-2.4,14L2154,741.7l9.8,12.1c2.7,3.3,5.2,6.7,7.4,10.2c1.5,2.3,2.9,4.6,4.2,7
		c1.9,3.6,3.7,7.2,5.2,10.9c3.3,8.1,5.5,16.5,6.6,25c3.5,27.6-4.8,56.7-24.2,84c-15.8,22.3-38.9,43.2-66.8,60.4l-480.9,231.3
		c-6.7-2.6-13.4-5.4-19.9-8.3l354.6-172.9l-21.5,1.3c-32.5,2-63.7-0.2-92.7-6.7c-57.7-12.8-100.6-40.3-120.9-77.4
		c-4-7.3-7-14.9-9-22.6c-0.4-1.3-0.7-2.7-1-4c0-0.1-0.1-0.2-0.1-0.4l-0.1-0.4c-0.2-1.1-0.4-2.2-0.6-3.3c0-0.2-0.1-0.5-0.1-0.7
		l-0.2-1c-0.1-0.8-0.3-1.6-0.4-2.3c0-0.2-0.1-0.5-0.1-0.7l-0.1-1.1c-0.1-0.8-0.2-1.5-0.2-2.3c0-0.2,0-0.5-0.1-0.7l-0.1-1
		c-0.1-0.8-0.1-1.6-0.2-2.4c0-0.2,0-0.4,0-0.6l0-0.7c0-1-0.1-1.9-0.1-2.9c0-0.1,0-0.3,0-0.4l0-0.5c0-1.1,0-2.2,0.1-3.3l0-0.7
		c0.1-1.2,0.1-2.4,0.2-3.5l27-289.1c10.9-4.2,22.1-8.2,33.3-12l-19.1,206.8l-0.9,11.3l8.2-7.9c6.4-6.2,13.4-12.2,20.8-17.9
		c4.2-3.2,8.6-6.4,13.1-9.5c1.1-0.8,2.3-1.5,3.4-2.3c23.2-15.2,49.6-27.7,78.5-37.1c61.6-20,127.7-24.2,186.2-11.6
		c4.7,1,9.5,2.2,14.3,3.5c6.5,1.8,13,3.8,19.2,6l0.6,0.2C2087.8,703.3,2088,703.4,2088.3,703.4z"/>
</g>
<g>
	<path class="st0" d="M2184.4,769.8l292.2,108c-9,33.1-24.9,65.9-47.4,97.6c-64.1,90.3-175.4,164.5-313.3,208.9
		c-69.4,22.4-141.3,35.7-213.7,39.6c-69.9,3.8-137.1-1.3-199.8-15.1c-19.1-4.2-37.8-9.3-55.7-15l426.7-206.2
		c42.7-20.5,77-47.8,99-78.9c23.9-33.7,31.9-69.4,23.1-103.2c0-0.2-0.1-0.4-0.1-0.6l-0.1-0.8c0-0.3-0.1-0.7-0.1-1
		c0-0.3-0.1-0.5-0.1-0.8l-0.1-0.7c-0.1-0.3-0.1-0.7-0.2-1c0-0.3-0.1-0.5-0.1-0.8l-0.2-0.8c-0.1-0.3-0.1-0.6-0.2-1
		c-0.1-0.2-0.1-0.5-0.2-0.7l-0.2-0.8c-0.1-0.3-0.1-0.7-0.2-1c-0.1-0.2-0.1-0.5-0.2-0.7l-0.2-0.7c-0.1-0.4-0.2-0.8-0.3-1.2
		c-0.1-0.2-0.1-0.4-0.2-0.7l-0.1-0.5c-0.1-0.4-0.2-0.9-0.4-1.3l-0.4-1.2c-0.1-0.4-0.2-0.8-0.4-1.2l-0.3-1.1
		c-0.1-0.5-0.3-0.9-0.4-1.4l-0.3-1c-0.2-0.5-0.3-1-0.5-1.5l-0.3-0.9c-0.2-0.5-0.4-1-0.6-1.5l-0.4-1.1c-0.2-0.4-0.3-0.9-0.5-1.3
		l-0.4-1c-0.2-0.5-0.4-0.9-0.6-1.3l-0.6-1.4c-0.1-0.3-0.3-0.6-0.4-1c-0.2-0.4-0.4-0.8-0.6-1.2l-0.3-0.6c-0.1-0.2-0.2-0.4-0.3-0.6
		C2185,771,2184.7,770.4,2184.4,769.8"/>
</g>
<g>
	<path class="st0" d="M2146.2,818.1c1,20.9-6.1,42.9-20.7,63.5c-16.6,23.5-42.2,44.6-74,60.8l-9.1,4.4c-3.8,1.8-7.8,3.5-11.9,5.2
		l-0.6,0.2c-1.4,0.6-2.8,1.1-4.3,1.7c-5.7,2.2-11.6,4.4-17.6,6.3c-45.4,14.7-92.8,19.1-137,12.6c-2.2-0.3-4.5-0.7-7.2-1.2
		c-1.6-0.3-3.2-0.6-4.8-0.9c-2.5-0.5-4.5-0.9-6.4-1.3c-39-8.7-69.9-25.3-89.2-48.2c-0.8-1.3-1.5-2.6-2.2-3.9
		c-16.6-30.5-12.7-65.7,10.8-99.2c24-34.2,65.3-62.2,116.3-78.8c51.3-16.8,106.5-20.2,155.2-9.7c38.7,8.3,70.7,25.5,90.1,48.4
		c0.9,1.4,1.6,2.6,2.2,3.7c4.7,8.6,7.9,17.7,9.4,27c0.3,2,0.6,4.1,0.8,6.2C2146.1,816,2146.1,817.1,2146.2,818.1"/>
</g>
<g>
	<path class="st0" d="M1884,1024l-298.7,145.6c-56.1-26.4-100.4-60.5-131.5-101.3c-3.8-5.8-7.4-11.7-10.7-17.8
		c-22.7-41.7-31.5-86.5-25.9-133.3c5.4-45.2,23.8-90.4,54.7-134.2c26.7-37.7,61.7-73,104-104.8c42-31.5,90.1-58.8,143.2-81.2
		l-24.6,262.9c-0.1,0.7-0.1,1.3-0.2,1.9l0,0.3c-0.5,6.1-0.5,12.2,0,18.1c0,0.2,0,0.4,0.1,0.6l0,0.4c0.1,1.2,0.2,2.3,0.4,3.5
		c0,0.3,0.1,0.6,0.1,0.9l0.2,1c0.1,0.8,0.2,1.7,0.4,2.5c0.1,0.4,0.1,0.7,0.2,1.1l0.2,1.2c0.1,0.7,0.3,1.4,0.4,2.1
		c0.1,0.4,0.2,0.8,0.3,1.1l0.3,1.3c0.1,0.6,0.3,1.2,0.4,1.7c1.7,13,5.9,25.7,12.4,37.6c21.5,39.4,66.4,68.4,126.5,81.7
		C1851.5,1020.6,1867.5,1022.9,1884,1024"/>
</g>
<g>
	<path class="st0" d="M2492.2,842.7c5.7-49.1-3.7-96.4-27.9-140.6c-3.3-6-7-12.1-10.9-18l-0.1-0.2c-1.9-2.5-3.9-5.1-6.5-8.1
		c-51.7-72-144.2-125.4-260.4-150.3c-63.7-13.6-131.8-18.5-202.2-14.5c-71.7,4.1-142.7,17.3-211.3,39.3l0.1-0.8l-6.2,2
		c-14.3,4.7-28.6,9.8-42.4,15.2l-2.5,1l-0.1,0.8c-115.2,45.5-209.9,114.9-266.7,195.3c-31.7,44.9-50.6,91.2-56.1,137.8
		c-5.8,48.4,3.3,94.8,26.8,138c4.6,8.4,9.8,16.7,15.4,24.8c1.8,3,3.7,6,5.6,8.9l0.1,0.2c30.8,40.4,74,74.4,128.4,100.9l-0.1,0.1
		l10.1,4.7c9.3,4.3,18.9,8.3,28.6,12.1l1.7,0.7l0.9-0.4c2.9,1.1,5.8,2.2,8.8,3.3l-1,0.5l9.8,3.4c21.2,7.3,43.5,13.5,66.6,18.6
		c49.7,11,102.5,16.5,157.1,16.5c14.8,0,30-0.4,45-1.2c73.1-4,145.7-17.4,215.8-40c139.7-45,252.4-120.3,317.6-212.1
		c23.9-33.7,40.6-68.7,49.7-104.1l0.6-2.5l0,0l0.3-1.3l0.8-3.5c1.3-5.8,2.4-11.7,3.3-17.7l0.1,0L2492.2,842.7L2492.2,842.7z
		 M2546.5,685c27.1,49.7,37.8,102.9,31.6,158.2c-6,53.6-27.4,106.9-63.7,158.4c-36.5,51.7-86.2,99.2-147.7,141
		c-63.7,43.3-137.4,78.7-219,105.1c-81.3,26.4-165.5,42.1-250.2,46.7c-81.9,4.5-160.6-1.5-233.9-17.8c-22.8-5.1-44.9-11.1-66.1-18
		c-21.2-6.9-41.6-14.8-60.9-23.5c-87.1-39.1-152.3-95.1-188.6-162.1c-26.6-49-36.8-101.7-30.3-156.8c6.3-53.2,27.8-106.4,64-157.9
		c12.4-17.6,26.4-35,41.7-51.6c29.4-31.6,64.2-61.3,103.5-88.3c63.4-43.7,136.6-79.3,217.3-105.7c81-26.5,165-42.4,249.8-47.3
		c18.6-1.1,37-1.6,55.3-1.6c62.2,0,122.4,6.2,179.6,18.5c73.8,15.9,138.9,41.4,193.5,75.8c29.8,18.8,56,40,77.8,63
		C2518.6,641.1,2534.2,662.5,2546.5,685z"/>
</g>
<g>
	<path class="st0" d="M2456.7,706.2c23,41.9,32.2,86.8,27.2,133.4l-391.4-143.8l-1.3-0.5c-11.3-4.1-23.4-7.6-35.9-10.3
		c-1.7-0.4-3.4-0.7-5.1-1l-1.4-0.3c-1.3-0.2-2.6-0.5-3.9-0.7l-1.5-0.3c-1.6-0.3-3.2-0.5-4.7-0.8l-0.5-0.1c-1.8-0.3-3.5-0.5-5.3-0.8
		l-1.4-0.2c-1.3-0.2-2.6-0.4-4-0.5l-1.6-0.2c-1.5-0.2-2.9-0.3-4.4-0.5l-0.9-0.1c-1.8-0.2-3.5-0.4-5.3-0.5l-1.4-0.1
		c-1.3-0.1-2.7-0.2-4-0.3l-1.7-0.1c-1.4-0.1-2.8-0.2-4.2-0.3l-1.2-0.1c-1.8-0.1-3.6-0.2-5.3-0.2l-1.3,0c-1.4,0-2.7-0.1-4.1-0.1
		c-0.6,0-1.2,0-1.8,0c-1.3,0-2.7,0-4,0l-2,0c-0.3,0-0.5,0-0.8,0l-0.6,0c-1.7,0-3.4,0-5.1,0.1c-0.8,0-1.6,0-2.4,0.1
		c-1.6,0-3.1,0.1-4.7,0.1l-0.2,0c-0.7,0-1.4,0.1-2.1,0.1c-1.8,0.1-3.5,0.2-5.3,0.3l-1.6,0.1c-2.3,0.1-4.6,0.3-6.9,0.5l-1.5,0.1
		c-1.8,0.2-3.6,0.3-5.4,0.5l-2.3,0.2c-1.6,0.2-3.2,0.3-4.8,0.5l-0.2,0c-0.7,0.1-1.4,0.2-2.1,0.3c-1.7,0.2-3.4,0.4-5.2,0.7l-1.8,0.2
		c-2.3,0.3-4.6,0.7-6.9,1l-1.1,0.2c-1.9,0.3-3.8,0.6-5.8,1c-0.6,0.1-1.2,0.2-1.8,0.3l-0.5,0.1c-1.6,0.3-3.2,0.6-4.8,0.9
		c-0.8,0.2-1.6,0.3-2.4,0.5c-1.6,0.3-3.3,0.7-5,1l-0.7,0.2c-0.4,0.1-0.9,0.2-1.3,0.3c-2.3,0.5-4.6,1-6.9,1.6l-0.7,0.2
		c-2,0.5-4.1,1-6.1,1.5c-0.5,0.1-1.1,0.3-1.6,0.4l-0.6,0.2c-1.6,0.4-3.1,0.8-4.7,1.3c-0.8,0.2-1.6,0.5-2.4,0.7
		c-1.6,0.5-3.2,0.9-4.7,1.4l-0.7,0.2c-0.5,0.1-0.9,0.3-1.4,0.4c-2.3,0.7-4.5,1.4-6.7,2.1c-6.1,2-12.3,4.2-18.3,6.5
		c-35.7,13.7-67.5,32.5-92.6,54.6l16.6-180.5c3.9-1.3,7.9-2.7,11.9-4c69-22.4,140.6-35.9,212.9-40c69.7-4,137,0.8,200.1,14.3
		c110.7,23.7,199.8,73.8,251.1,141C2450,694.6,2453.5,700.4,2456.7,706.2"/>
</g>
<g>
	<path class="st0" d="M2150.6,789.5l-9.9-16.1c-0.1-0.2-0.2-0.4-0.3-0.5l-0.2-0.3c-0.4-0.6-0.7-1.1-1.1-1.7c-0.2-0.3-0.4-0.6-0.6-1
		l-0.1-0.1c-0.4-0.7-0.9-1.3-1.4-2l-0.4-0.6c-0.6-0.8-1.2-1.6-1.8-2.4c-17.5-23.2-45.6-41-81.1-51.5l-0.2-0.1
		c-1.3-0.4-2.7-0.8-4-1.1l-1-0.3c-1.1-0.3-2.2-0.6-3.3-0.9c-0.4-0.1-0.9-0.2-1.3-0.3l-1.3-0.3c-0.6-0.1-1.2-0.3-1.7-0.4
		c-1.5-0.4-3-0.7-4.6-1c-4.7-1-9.5-1.9-14.3-2.7c-14.4-2.3-29.3-3.4-44.4-3.5c-33.5-0.1-68.4,5.5-100.9,16.1
		c-1.6,0.5-3.3,1.1-4.9,1.6c-3.2,1.1-6.5,2.3-9.6,3.5c-36.3,13.9-67.5,33.8-90.1,57.5c-2,2.1-3.9,4.2-5.7,6.3
		c-1.8,2.1-3.6,4.3-5.3,6.5c-1.7,2.2-3.4,4.4-4.9,6.6c-0.8,1.1-1.6,2.3-2.3,3.4c-13.5,20.4-20.3,41.2-20.2,61.9
		c0.1,10.3,1.9,20.4,5.4,30.1c1.6,4.3,3.5,8.6,5.8,12.8c0.5,0.9,1,1.8,1.6,2.7c0.2,0.3,0.3,0.5,0.5,0.8l0.1,0.1
		c0.4,0.6,0.7,1.2,1.1,1.8l0.1,0.2c0.2,0.3,0.3,0.5,0.5,0.8c0.5,0.7,1,1.5,1.5,2.2c0.3,0.4,0.5,0.8,0.8,1.2l0.1,0.1
		c0.4,0.5,0.7,1,1.1,1.5c0.3,0.4,0.6,0.8,0.9,1.3c0.3,0.4,0.6,0.8,1,1.3l0.2,0.2c0.3,0.4,0.6,0.7,0.9,1.1c0.2,0.3,0.5,0.6,0.7,0.9
		l0.4,0.5c0.4,0.4,0.7,0.9,1.1,1.3l11.7,13.8l1.2-0.9c20.3,17.5,48.1,30.5,80.8,37.8c2.4,0.5,4.9,1,7.3,1.5
		c17,3.3,34.9,4.9,53.1,4.9c22.7,0,45.8-2.5,68.6-7.5c10.4-2.3,20.8-5.1,30.9-8.4c6.1-2,12.3-4.2,18.3-6.5
		c5.9-2.3,11.6-4.8,17.1-7.3c3.1-1.5,6.3-3,9.3-4.5c6.1-3.1,12.1-6.5,17.9-10c2.8-1.7,5.7-3.6,8.9-5.7c3.9-2.7,7.8-5.4,11.4-8.1
		c0.9-0.7,1.7-1.3,2.5-2c14.7-11.6,27-24.2,36.5-37.7c22.1-31.3,28-65.3,16.6-95.8c0,0,0-0.1,0-0.1L2150.6,789.5z M2088.3,703.4
		l394.5,144.9c-0.7,4.6-1.5,9.3-2.4,14L2154,741.7l9.8,12.1c2.7,3.3,5.2,6.7,7.4,10.2c1.5,2.3,2.9,4.6,4.2,7
		c1.9,3.6,3.7,7.2,5.2,10.9c3.3,8.1,5.5,16.5,6.6,25c3.5,27.6-4.8,56.7-24.2,84c-15.8,22.3-38.9,43.2-66.8,60.4l-480.9,231.3
		c-6.7-2.6-13.4-5.4-19.9-8.3l354.6-172.9l-21.5,1.3c-32.5,2-63.7-0.2-92.7-6.7c-57.7-12.8-100.6-40.3-120.9-77.4
		c-4-7.3-7-14.9-9-22.6c-0.4-1.3-0.7-2.7-1-4c0-0.1-0.1-0.2-0.1-0.4l-0.1-0.4c-0.2-1.1-0.4-2.2-0.6-3.3c0-0.2-0.1-0.5-0.1-0.7
		l-0.2-1c-0.1-0.8-0.3-1.6-0.4-2.3c0-0.2-0.1-0.5-0.1-0.7l-0.1-1.1c-0.1-0.8-0.2-1.5-0.2-2.3c0-0.2,0-0.5-0.1-0.7l-0.1-1
		c-0.1-0.8-0.1-1.6-0.2-2.4c0-0.2,0-0.4,0-0.6l0-0.7c0-1-0.1-1.9-0.1-2.9c0-0.1,0-0.3,0-0.4l0-0.5c0-1.1,0-2.2,0.1-3.3l0-0.7
		c0.1-1.2,0.1-2.4,0.2-3.5l27-289.1c10.9-4.2,22.1-8.2,33.3-12l-19.1,206.8l-0.9,11.3l8.2-7.9c6.4-6.2,13.4-12.2,20.8-17.9
		c4.2-3.2,8.6-6.4,13.1-9.5c1.1-0.8,2.3-1.5,3.4-2.3c23.2-15.2,49.6-27.7,78.5-37.1c61.6-20,127.7-24.2,186.2-11.6
		c4.7,1,9.5,2.2,14.3,3.5c6.5,1.8,13,3.8,19.2,6l0.6,0.2C2087.8,703.3,2088,703.4,2088.3,703.4z"/>
</g>
<g>
	<path class="st0" d="M2184.4,769.8l292.2,108c-9,33.1-24.9,65.9-47.4,97.6c-64.1,90.3-175.4,164.5-313.3,208.9
		c-69.4,22.4-141.3,35.7-213.7,39.6c-69.9,3.8-137.1-1.3-199.8-15.1c-19.1-4.2-37.8-9.3-55.7-15l426.7-206.2
		c42.7-20.5,77-47.8,99-78.9c23.9-33.7,31.9-69.4,23.1-103.2c0-0.2-0.1-0.4-0.1-0.6l-0.1-0.8c0-0.3-0.1-0.7-0.1-1
		c0-0.3-0.1-0.5-0.1-0.8l-0.1-0.7c-0.1-0.3-0.1-0.7-0.2-1c0-0.3-0.1-0.5-0.1-0.8l-0.2-0.8c-0.1-0.3-0.1-0.6-0.2-1
		c-0.1-0.2-0.1-0.5-0.2-0.7l-0.2-0.8c-0.1-0.3-0.1-0.7-0.2-1c-0.1-0.2-0.1-0.5-0.2-0.7l-0.2-0.7c-0.1-0.4-0.2-0.8-0.3-1.2
		c-0.1-0.2-0.1-0.4-0.2-0.7l-0.1-0.5c-0.1-0.4-0.2-0.9-0.4-1.3l-0.4-1.2c-0.1-0.4-0.2-0.8-0.4-1.2l-0.3-1.1
		c-0.1-0.5-0.3-0.9-0.4-1.4l-0.3-1c-0.2-0.5-0.3-1-0.5-1.5l-0.3-0.9c-0.2-0.5-0.4-1-0.6-1.5l-0.4-1.1c-0.2-0.4-0.3-0.9-0.5-1.3
		l-0.4-1c-0.2-0.5-0.4-0.9-0.6-1.3l-0.6-1.4c-0.1-0.3-0.3-0.6-0.4-1c-0.2-0.4-0.4-0.8-0.6-1.2l-0.3-0.6c-0.1-0.2-0.2-0.4-0.3-0.6
		C2185,771,2184.7,770.4,2184.4,769.8"/>
</g>
<g>
	<path class="st0" d="M2146.2,818.1c1,20.9-6.1,42.9-20.7,63.5c-16.6,23.5-42.2,44.6-74,60.8l-9.1,4.4c-3.8,1.8-7.8,3.5-11.9,5.2
		l-0.6,0.2c-1.4,0.6-2.8,1.1-4.3,1.7c-5.7,2.2-11.6,4.4-17.6,6.3c-45.4,14.7-92.8,19.1-137,12.6c-2.2-0.3-4.5-0.7-7.2-1.2
		c-1.6-0.3-3.2-0.6-4.8-0.9c-2.5-0.5-4.5-0.9-6.4-1.3c-39-8.7-69.9-25.3-89.2-48.2c-0.8-1.3-1.5-2.6-2.2-3.9
		c-16.6-30.5-12.7-65.7,10.8-99.2c24-34.2,65.3-62.2,116.3-78.8c51.3-16.8,106.5-20.2,155.2-9.7c38.7,8.3,70.7,25.5,90.1,48.4
		c0.9,1.4,1.6,2.6,2.2,3.7c4.7,8.6,7.9,17.7,9.4,27c0.3,2,0.6,4.1,0.8,6.2C2146.1,816,2146.1,817.1,2146.2,818.1"/>
</g>
<g>
	<path class="st0" d="M1884,1024l-298.7,145.6c-56.1-26.4-100.4-60.5-131.5-101.3c-3.8-5.8-7.4-11.7-10.7-17.8
		c-22.7-41.7-31.5-86.5-25.9-133.3c5.4-45.2,23.8-90.4,54.7-134.2c26.7-37.7,61.7-73,104-104.8c42-31.5,90.1-58.8,143.2-81.2
		l-24.6,262.9c-0.1,0.7-0.1,1.3-0.2,1.9l0,0.3c-0.5,6.1-0.5,12.2,0,18.1c0,0.2,0,0.4,0.1,0.6l0,0.4c0.1,1.2,0.2,2.3,0.4,3.5
		c0,0.3,0.1,0.6,0.1,0.9l0.2,1c0.1,0.8,0.2,1.7,0.4,2.5c0.1,0.4,0.1,0.7,0.2,1.1l0.2,1.2c0.1,0.7,0.3,1.4,0.4,2.1
		c0.1,0.4,0.2,0.8,0.3,1.1l0.3,1.3c0.1,0.6,0.3,1.2,0.4,1.7c1.7,13,5.9,25.7,12.4,37.6c21.5,39.4,66.4,68.4,126.5,81.7
		C1851.5,1020.6,1867.5,1022.9,1884,1024"/>
</g>
<g>
	<g>
		<polygon class="st1" points="1661.3,219.1 1653.5,93.4 1662,92.9 1669.7,216.8 		"/>
	</g>
</g>
<path class="st0" d="M3338.8,2170.7c-18.1-35.3-38-61.9-59.2-79.1l-0.3-0.3c-1.5-1.2-2.9-1.6-4.3-1.3l0,0l-143.5,19.2
	c-4.4-5.7-10.6-11.1-18.5-15.9l0-0.1l-1-0.6c-0.1,0-0.2-0.1-0.2-0.1c-0.2-0.1-0.5-0.3-0.9-0.5l-1.9-1.1l-27.9,1l0.4,9.9l-21.8,0.8
	l-0.4-9.9l-131,4.9l0,0.7l-0.2-0.4l0.3,7.1l-21.6,0.8l-0.3-7.4l-263.7,9.8c-0.8-21.5-4.9-36-12.2-43.1c-3.7-3.6-8.2-5.2-13.6-5.1
	c-8.9,0.3-17.9,0.7-26.7,1c-456.5,17.7-791.6,31.7-919.5,38.4c-19.3,1-42.4,6.4-42.5,26.4l2.4,43.1l0.3,3.6l9.6,167.4h0l1.1,19.2
	c1.8,20,25.2,23.4,44.6,22.8c27.6-0.9,64.6-1.9,111.4-3.2c167.4-4.5,447.7-12.2,829.3-30.9c11-0.7,23.8-7.9,24.7-57.4
	c0-2,0-4.2,0-6.3l261-8.2l-0.2-7.4l21.6-0.7l0.2,7.1l0.2-0.4l0,0.6l131-4.1l-0.3-9.9l21.8-0.7l0.3,9.9l27.9-0.9l1-0.7
	c0.3-0.2,0.6-0.4,0.8-0.6l2-1.4l0,0c7.5-5.4,13.4-11.1,17.3-17.1l146.2,9.4l0.2-0.3c1.5-0.4,2.7-1.5,3.5-2.4
	c0.3-0.3,0.8-0.8,1.3-1.2c19.1-18.5,36.5-45.7,51.5-80.9l0.8-1.8L3338.8,2170.7z M2901.2,2187.1l0.6,20.1l-253.4,9.8l-5.4-100.3
	l255.3-9.5L2901.2,2187.1z M2651.5,2275.5c0-0.7,0-1.3,0-1.9l-1.5-28.3l252.8-9.7l1,31.9l0,0.3L2651.5,2275.5z M2939.9,2186.1
	l-2-52.8l0.2,0.3l-1-27.7l114-4.2l3,80.4l0.6,19.3l-114.1,4.4L2939.9,2186.1z M2942.6,2266.5l-0.9-27.8l-0.1,0.3l-0.2-4.9l114.1-4.4
	l1,33.2L2942.6,2266.5z M3092.9,2180.9l-3-80.8l14.5-0.5c0,1.3,0,2.6,0,3.9c0,1.8,0,3.6,0,5.3c0,1.6,0,3.3,0,4.9c0,1.8,0,3.6,0,5.5
	c0,1.6,0,3.2,0,4.8c0,1.8,0,3.7,0,5.5c0,1.6,0,3.2,0.1,4.7c0,1.9,0,3.7,0.1,5.6c0,1.5,0.1,3,0.1,4.6c0,1.9,0.1,3.8,0.1,5.7
	c0,1.4,0.1,2.7,0.1,4.1c0,2.1,0.1,4.1,0.1,6.1c0,0.7,0,1.4,0.1,2.1c0.2,6,0.4,12.1,0.6,18l0,0.1c0.1,3.3,0.2,6.6,0.3,10
	c0.1,1.4,0.1,2.9,0.2,4.4c0.1,1.4,0.1,2.9,0.2,4.3l-12.9,0.5L3092.9,2180.9z M3095.4,2261.7l-1-33.5l13.4-0.5
	c0.1,1.3,0.1,2.6,0.2,3.8c0.1,1.8,0.2,3.5,0.3,5.3c0.1,1.7,0.2,3.3,0.3,5c0.1,1.8,0.2,3.6,0.3,5.4c0.1,1.7,0.2,3.3,0.3,5
	c0.1,1.8,0.3,3.7,0.4,5.5c0.1,1.2,0.2,2.4,0.3,3.6L3095.4,2261.7z M3114.8,2197.1c-0.1-1.5-0.1-3.1-0.2-4.6c0-0.7-0.1-1.4-0.1-2.1
	c-0.1-3.4-0.2-6.7-0.3-10l0-0.3c0-0.3,0-0.6,0-1c-0.1-3-0.2-6-0.3-9c0-1.1-0.1-2.2-0.1-3.3c-0.1-2.2-0.1-4.4-0.2-6.6
	c0-1.3-0.1-2.6-0.1-3.9c0-2.1-0.1-4.1-0.1-6.2c0-1.4-0.1-2.7-0.1-4.1c0-2-0.1-4-0.1-6c0-1.4,0-2.8-0.1-4.1c0-2-0.1-4.1-0.1-6.1
	c0-1.4,0-2.7,0-4.1c0-2.1,0-4.2,0-6.3c0-1.3,0-2.6,0-3.9c0-2.2,0-4.4,0-6.6c0-1.2,0-2.4,0-3.5c0-0.6,0-1.2,0-1.8
	c5,3.6,9.1,7.3,12,11.2c0,1.8,0,3.6,0,5.4c0,0.8,0,1.6,0,2.3c0,1.9,0,3.9,0.1,5.8c0,0.8,0,1.7,0,2.5c0,1.8,0,3.6,0.1,5.5
	c0,0.9,0,1.9,0,2.8c0,1.7,0.1,3.4,0.1,5.1c0,1,0,2.1,0.1,3.1c0,1.5,0.1,2.9,0.1,4.4c0,1.3,0.1,2.6,0.1,3.8c0,0.8,0,1.7,0.1,2.5
	c0.2,7.3,0.4,14.6,0.7,21.8c0,0,0,0.1,0,0.1l0,0.1c0,0,0,0,0,0c0.1,3.9,0.3,7.8,0.4,11.7L3114.8,2197.1z M3118.1,2256.8
	c0-0.6-0.1-1.1-0.1-1.7c-0.1-1.3-0.2-2.6-0.3-3.8c-0.1-2.1-0.3-4.2-0.4-6.3c-0.1-1.4-0.2-2.7-0.3-4.1c-0.1-2-0.3-4.1-0.4-6.1
	c-0.1-1.4-0.2-2.8-0.2-4.2c-0.1-2-0.2-4-0.3-5.9l11.6-8c0.2,3.8,0.4,7.7,0.6,11.5c0,0.1,0,0.2,0,0.3c0.3,5.4,0.6,10.8,1,16.2
	c0,0,0,0,0,0.1C3126.7,2248.9,3122.9,2252.9,3118.1,2256.8z M3134.7,2179.7l0-0.2c-0.2-4.7-0.3-9.5-0.5-14.2c0-0.5,0-1,0-1.5
	c-0.1-4.5-0.2-9.1-0.3-13.7c0-0.7,0-1.4,0-2.1c-0.1-4.5-0.2-9-0.2-13.6c0-0.7,0-1.5,0-2.2c-0.1-4.6-0.1-9.1-0.1-13.7
	c0-0.3,0-0.7,0-1l138.1-18.5l0.4,22.6c0.1,15,0.1,30.5,0.7,45.3l0.1,7.6l0.4,7.6c0.1,4,0.3,8.1,0.5,12.2l-138.4-3.6
	C3135,2187.1,3134.8,2183.4,3134.7,2179.7z M3137.7,2241.4c-0.2-2.4-0.3-4.8-0.4-7.2c-0.1-2.2-0.3-4.4-0.4-6.7
	c-0.2-3.3-0.4-6.5-0.5-9.8c-0.1-1.2-0.1-2.4-0.2-3.6l139,8.7c0.1,1.7,0.2,3.5,0.3,5.2l1.2,22.4L3137.7,2241.4z M3285.1,2245.5
	c-0.3-5.7-0.7-11.6-1.1-17.2c0-0.3,0-0.7-0.1-1l-0.4-7.5l39.4-31C3311.4,2212.3,3298.7,2231.3,3285.1,2245.5z M3329.2,2175.4
	l-47.1,17.5l-0.6-10.8c-0.1-2.5-0.1-5-0.2-7.5l0-0.2c-0.1-2.5-0.2-5-0.3-7.6l-0.7-45.1c0-0.4,0-0.7,0-1.1c0-5.7,0-11.5-0.1-17.3
	c17.7,16.1,34.5,39.4,50.1,69.4C3330,2173.7,3329.6,2174.5,3329.2,2175.4z"/>
<g>
	<path class="st0" d="M3236,1097.7l-4.3-46.8c-20.7,84.2-59.5,167.6-115.4,248.1c-73.6,106-173.7,203-297.5,288.4
		c-127.7,88.1-275.3,160.1-438.8,213.9c-162.7,53.6-331.2,85.5-500.8,94.9c-164,9.1-321.7-3.1-468.8-36.3
		c-145.4-32.8-273.6-84.1-381.1-152.5c-97.3-61.9-174.2-135.8-229.1-219.9l20.6,70.7c10.2,36.2,24.4,71.9,42.2,106.1
		c51.9,99.6,132.6,186,239.9,256.9c103.8,68.6,228.1,119.9,369.5,152.6c51.9,12,105.3,21.2,159.8,27.6c8.5-6.2,21.3-9.7,38-10.6
		c90.6-4.8,285.4-13.2,553.7-24c60.8-13.9,121-30.8,180.5-50.9c157.1-53,299-123.9,421.7-210.7c118.7-84,214.5-179.2,285-283.2
		C3204.1,1384.9,3247.3,1238.2,3236,1097.7z"/>
</g>
<g>
	<path class="st0" d="M3210.2,815.9l-0.8-8.5c-7.1-71.5-28.4-141.1-63.4-206.8c-53.7-101-137.2-188.5-248.1-260.2
		c-53.4-34.5-112.9-65-177-90.7c-57.2-22.9-118.4-42.2-182.1-57.3l208.8-6.5l-0.2-6.7l14.8-0.5l0.3,8.5l0.9-1.9l110.7-3.5l-0.3-8.8
		l17-0.5l0.3,8.8l24.3-0.8l2-1.3c0,0,0,0,0.1,0c0.1,0,0.1-0.1,0.1-0.1l1.5-1l0-0.1c6.1-4.4,10.9-9.1,14.2-14l123,7.9l0.3-0.4
		c1.3-0.4,2.3-1.4,3-2.1c0.3-0.3,0.6-0.6,1-1c16.2-15.6,30.8-38.6,43.5-68.3l0.8-1.8l-0.9-1.8c-15.3-29.8-32.1-52.3-50-66.7
		l-0.3-0.2c-1.3-1.1-2.7-1.5-4-1.2l-120.5,16.1c-3.7-4.7-8.8-9-15.2-13l0-0.1l-1.2-0.7c-0.1,0-0.1-0.1-0.2-0.1
		c-0.2-0.1-0.4-0.3-0.7-0.4l-0.1-0.1c-0.2-0.1-0.5-0.3-0.7-0.4l-1.1-0.6l-24.3,0.9l0.3,8.8l-17,0.6l-0.3-8.8l-110.7,4.1l-1-1.8
		l0.3,8.5l-14.8,0.6l-0.2-6.6l-221.7,8.3c-1.2-29.3-9.7-43.8-25.4-43.5c-7.6,0.3-15.1,0.6-22.6,0.9
		c-399.3,15.4-670.1,26.9-773.5,32.3c-31.5,1.7-39.1,14.4-39.1,25.9l2.1,38c-0.1,0-0.1,0-0.2,0l2.7,43.3l4.4,76.4l-8,2.2l-7.5-120.6
		C1086.3,191,680.7,362.6,413.2,571.8C79.4,832.8-39.3,1152.2,11.1,1449c63.4,373.3,388.8,687,1054.7,821
		c83.7,16.8,172.8,30.9,267.4,41.8c88.9,10.3,182.6,17.8,281.4,22.5c5,0.2,10.1,0.5,15.1,0.7l-8.4-162.3c-5.4-0.2-10.7-0.4-16.1-0.6
		c-41.4-1.5-82.8-3.4-124.1-5.7c-27.7-1.5-56.2-3.6-85.4-6.1c-49.3-4.3-100.4-10.1-151.7-17.2c-196.9-27.1-397.9-73.3-519.5-129.4
		c-282.9-130.6-544.1-296-579.2-628.9c-28.7-272.2,118.1-502.7,318.4-671.5c5.6-4.7,11.2-9.4,16.9-14c4.5-3.7,9.1-7.4,13.7-11
		c179.4-142,398.1-242.2,614.2-313.9c129.4-43,262.9-77.4,398.1-105c-135.7,50.6-259.5,115.2-368.7,192.4
		c-119.8,84.8-217.1,181-289,286.1c-57.6,84.2-96.7,171.3-116.3,258.9c-20,89.7-18.9,178,3.1,262.4l9.3,31.8
		c9.7,29.5,22.2,58.9,37.2,87.2c53.1,100.4,135.7,187.5,245.5,259c106.2,69.1,233.4,120.9,378.1,153.9c144.6,33,299.6,45.1,460.9,36
		c166.9-9.4,332.7-41.1,492.8-94.4c160.8-53.5,305.9-124.9,431.5-212.5c121.4-84.6,219.5-180.7,291.6-285.5
		C3177.9,1106,3222.1,957.7,3210.2,815.9z M2528.1,184.2c0-0.4,0-0.7,0-1.1l-1.3-23.8l211.2-8.1l0.9,26.4L2528.1,184.2z
		 M2770.9,176.5l-0.8-25.4l-0.1,0.2l0-1.4l94.7-3.6l0.9,27.3L2770.9,176.5z M2899.4,172.5l-0.9-27.5l10-0.4c0.1,1,0.1,2,0.2,3
		c0.1,1.5,0.2,2.9,0.3,4.4c0.1,1.4,0.2,2.8,0.3,4.2c0.1,1.5,0.2,3,0.3,4.5c0.1,1.4,0.2,2.7,0.3,4.1c0.1,1.5,0.2,3.1,0.3,4.6
		c0.1,0.9,0.1,1.8,0.2,2.7L2899.4,172.5z M2918.5,167.7c0-0.2,0-0.3,0-0.5c-0.3-4.7-0.6-9.3-0.9-14c-0.1-0.8-0.1-1.7-0.2-2.5
		c-0.2-3.1-0.3-6.1-0.5-9.2l8.4-5.8c0,0.5,0.1,1,0.1,1.5c0.1,2.7,0.3,5.4,0.4,8c0.1,2.3,0.3,4.6,0.4,7c0.1,2.2,0.3,4.3,0.4,6.5
		C2924.6,161.8,2921.9,164.8,2918.5,167.7z M2935,155.5c-0.1-2-0.3-4-0.4-6.1c-0.1-1.7-0.2-3.4-0.3-5.2c-0.2-2.8-0.3-5.6-0.4-8.4
		c0-0.9-0.1-1.8-0.1-2.6l115.6,7.2c0.1,1.5,0.2,3,0.3,4.5l1,18.1L2935,155.5z M3058.9,158c-0.3-4.3-0.5-8.7-0.8-13
		c0-0.3,0-0.5-0.1-0.8l-0.4-6.8l31.2-24.6C3079.7,131.4,3069.7,146.5,3058.9,158z M3095.6,98.5c-0.4,0.8-0.7,1.7-1.1,2.5l-38,14.1
		l-0.5-8.9c-0.1-2.1-0.1-4.2-0.1-6.3l0-0.2c-0.1-2.1-0.2-4.2-0.3-6.3l-0.6-38c0-0.3,0-0.6,0-0.9c0-4.3,0-8.6-0.1-13
		C3069.3,55,3083,74.1,3095.6,98.5z M3046.5,55.5c0,12.6,0.1,25.6,0.6,38.1l0.1,6.4l0.3,6.4c0.1,3.4,0.2,6.8,0.4,10.2l-115.1-3
		c-0.1-3.2-0.2-6.3-0.3-9.4l0-0.2c0-0.4,0-0.9,0-1.3c-0.1-4-0.3-7.9-0.4-11.9c0-1.5-0.1-3.1-0.1-4.6c-0.1-2.9-0.1-5.8-0.2-8.7
		c0-1.8-0.1-3.6-0.1-5.4c0-2.7-0.1-5.3-0.1-8c0-1.9,0-3.8-0.1-5.8c0-1.9,0-3.7,0-5.6l114.8-15.3L3046.5,55.5z M2922.9,49.8
		c0,2.6,0,5.1,0.1,7.7c0,1.9,0,3.8,0,5.7c0,2.8,0.1,5.6,0.1,8.4c0,1.8,0,3.6,0.1,5.4c0,2.4,0.1,4.8,0.2,7.2
		c0.2,6.8,0.4,13.5,0.6,20.1c0,0,0,0.1,0,0.1h0c0.1,3.4,0.2,6.7,0.4,10.1l-8.6,4c-0.2-4.6-0.4-9.1-0.5-13.7c0,0,0-0.1,0-0.1l0-0.1
		c0-0.7,0-1.4-0.1-2.1c-0.1-2-0.1-4.1-0.2-6.1c0-1.1-0.1-2.3-0.1-3.4c0-1.6-0.1-3.2-0.1-4.9c0-1.3-0.1-2.5-0.1-3.8
		c0-1.5-0.1-3-0.1-4.6c0-1.3-0.1-2.6-0.1-3.9c0-1.5-0.1-3-0.1-4.5c0-1.3,0-2.6-0.1-4c0-1.5,0-3-0.1-4.5c0-1.3,0-2.6,0-3.9
		c0-1.6,0-3.1,0-4.7c0-1.3,0-2.5,0-3.8c0-1.6,0-3.3,0-4.9c0-1.2,0-2.4,0-3.6c0-0.2,0-0.3,0-0.5C2917.8,44.1,2920.7,46.9,2922.9,49.8
		z M2905.6,37.6c0,1.2,0,2.4,0,3.5c0,1.2,0,2.4,0,3.6c0,1.6,0,3.3,0,4.9c0,1.3,0,2.6,0,3.8c0,1.6,0,3.2,0,4.7c0,1.3,0,2.7,0,4
		c0,1.5,0,3.1,0.1,4.6c0,1.3,0,2.7,0.1,4c0,1.5,0.1,3.1,0.1,4.6c0,1.3,0,2.7,0.1,4c0,1.6,0.1,3.1,0.1,4.6c0,1.3,0.1,2.6,0.1,3.9
		c0,1.6,0.1,3.2,0.1,4.8c0,1.2,0.1,2.5,0.1,3.7c0.1,2.8,0.2,5.5,0.3,8.2l0,0.3c0.1,2.8,0.2,5.6,0.3,8.5c0,0.4,0,0.7,0,1.1
		c0.1,2,0.2,4.1,0.2,6.1l-9.5,0.4l-0.5-15.9l-2.5-67.3L2905.6,37.6z M2860.8,39.2l2.5,66.9l0.5,16.3l-94.7,3.7l-0.5-16.5l-1.6-41.6
		l0.1,0.2l-0.9-25.4L2860.8,39.2z M2734.3,44l2.4,66.5l0.5,16.9l-211.7,8.2l-1.2-23.3l-3.2-60.3L2734.3,44z M3148.7,904.4
		c-5.6,51.3-18.8,103.2-39.2,154.3c-20.2,50.6-47.5,100.9-81.3,149.4c-68.5,98.4-161.6,188.4-276.8,267.7
		c-118.8,81.8-256.2,148.6-408.3,198.5c-151.4,49.7-308.1,79.4-466,88.1c-32.5,1.8-65.2,2.7-97.2,2.7c-117.7,0-231.7-12.2-339-36.4
		c-137.3-30.9-258-79.4-358.9-144.3c-104.8-67.4-183.7-149.6-234.5-244.4c-41.2-76.9-61.8-159.1-61.3-244.3
		c0-20.4,1.2-41.1,3.6-61.6c5.9-50.9,19.3-102.6,39.8-153.6c20.2-50.4,47.6-100.6,81.2-149.1c68.3-98.6,160.6-188.8,274.3-268.2
		c118.1-82.4,254.1-149.5,404.4-199.2c150.4-49.8,306.6-79.7,464.2-88.9c152.1-8.9,299.1,1.8,436.8,31.9
		c137.7,30,259.2,78.3,361.2,143.4c105.8,67.5,185.5,150.1,236.9,245.5c42.2,78.3,63.6,161.7,63.4,247.7
		C3152,863.7,3150.9,884.1,3148.7,904.4z"/>
	<path class="st0" d="M2844.3,363.1c-100.9-64.4-221.2-112.1-357.5-141.9c-105.4-23-216.9-34.6-331.6-34.6c-33.6,0-67.9,1-102.1,3
		c-156.5,9.1-311.7,38.9-461.2,88.4c-149.2,49.4-284.2,116-401.4,197.8C1077.8,554.4,986.5,643.7,919,741.1
		c-33.1,47.8-60.1,97.2-80,146.9c-20.1,50.1-33.2,100.8-39.1,150.7c-2.2,19.1-3.4,38.3-3.5,57.2c0,82.1,20.2,161.5,60,235.8
		c49.9,93.1,127.4,173.9,230.6,240.2c99.8,64.1,219.3,112.1,355.3,142.7c135.8,30.6,281.5,41.8,433.1,33.4
		c156.8-8.7,312.6-38.2,463-87.6c151.1-49.6,287.5-115.9,405.4-197.1c114.1-78.5,206.2-167.6,273.9-264.8
		c33.3-47.8,60.3-97.3,80.1-147.1c20-50.2,32.9-101.1,38.5-151.4c2.1-18.7,3.1-37.7,3.1-56.4c-0.4-83-21.3-163.5-62-239.2
		C3026.9,510.8,2948.5,429.6,2844.3,363.1z M2588.4,844.5c-6.2,55.6-28.3,110.6-65.8,163.7c-12.9,18.3-27.7,36.4-43.9,53.6
		c-30.4,32.8-66.8,63.6-108,91.6c-64.4,43.8-138.9,79.5-221.3,106.2c-82,26.6-167,42.5-252.5,47.2c-17.6,1-35.4,1.5-52.7,1.5
		c-63.8,0-125.6-6.5-183.7-19.5c-46.2-10.3-89.6-24.4-128.9-42.1c-58.9-26.5-107.8-60.3-145.4-100.7c-19.8-21-36.5-43.7-49.4-67.5
		c-27.7-51.1-38.3-106.1-31.6-163.5c6.5-55.1,28.7-110,66-163.1c37.2-53,87.4-101.5,149.3-144.1c64.2-44.2,138.1-80.2,219.7-106.9
		c81.7-26.7,166.5-42.8,252.1-47.7c82.7-4.8,162.5,1,237.3,17.1c74.9,16.1,141,42,196.5,77c57.7,36.4,101.2,80.9,129.3,132.3
		C2583.7,731.4,2594.8,786.9,2588.4,844.5z"/>
</g>
</svg>
